<svg xmlns="http://www.w3.org/2000/svg" xmlns:xlink="http://www.w3.org/1999/xlink" width="500" zoomAndPan="magnify" viewBox="0 0 375 374.999991" height="500" preserveAspectRatio="xMidYMid meet" version="1.0"><defs><radialGradient gradientTransform="matrix(1, 0, 0, 1, 0.0000045, 0)" gradientUnits="userSpaceOnUse" r="265.164751" cx="187.499996" id="f07e4aa964" cy="187.499996" fx="187.499996" fy="187.499996"><stop stop-opacity="1" stop-color="rgb(99.845886%, 99.845886%, 99.845886%)" offset="0"/><stop stop-opacity="1" stop-color="rgb(99.577332%, 99.577332%, 99.577332%)" offset="0.015625"/><stop stop-opacity="1" stop-color="rgb(99.34845%, 99.34845%, 99.34845%)" offset="0.0273438"/><stop stop-opacity="1" stop-color="rgb(99.118042%, 99.118042%, 99.118042%)" offset="0.0390625"/><stop stop-opacity="1" stop-color="rgb(98.88916%, 98.88916%, 98.88916%)" offset="0.0507812"/><stop stop-opacity="1" stop-color="rgb(98.658752%, 98.658752%, 98.658752%)" offset="0.0625"/><stop stop-opacity="1" stop-color="rgb(98.429871%, 98.429871%, 98.429871%)" offset="0.0742188"/><stop stop-opacity="1" stop-color="rgb(98.199463%, 98.199463%, 98.199463%)" offset="0.0859375"/><stop stop-opacity="1" stop-color="rgb(97.970581%, 97.970581%, 97.970581%)" offset="0.0976562"/><stop stop-opacity="1" stop-color="rgb(97.740173%, 97.740173%, 97.740173%)" offset="0.109375"/><stop stop-opacity="1" stop-color="rgb(97.511292%, 97.511292%, 97.511292%)" offset="0.121094"/><stop stop-opacity="1" stop-color="rgb(97.280884%, 97.280884%, 97.280884%)" offset="0.132812"/><stop stop-opacity="1" stop-color="rgb(97.050476%, 97.050476%, 97.050476%)" offset="0.144531"/><stop stop-opacity="1" stop-color="rgb(96.821594%, 96.821594%, 96.821594%)" offset="0.15625"/><stop stop-opacity="1" stop-color="rgb(96.591187%, 96.591187%, 96.591187%)" offset="0.167969"/><stop stop-opacity="1" stop-color="rgb(96.362305%, 96.362305%, 96.362305%)" offset="0.179688"/><stop stop-opacity="1" stop-color="rgb(96.131897%, 96.131897%, 96.131897%)" offset="0.191406"/><stop stop-opacity="1" stop-color="rgb(95.903015%, 95.903015%, 95.903015%)" offset="0.203125"/><stop stop-opacity="1" stop-color="rgb(95.672607%, 95.672607%, 95.672607%)" offset="0.214844"/><stop stop-opacity="1" stop-color="rgb(95.443726%, 95.443726%, 95.443726%)" offset="0.226562"/><stop stop-opacity="1" stop-color="rgb(95.213318%, 95.213318%, 95.213318%)" offset="0.238281"/><stop stop-opacity="1" stop-color="rgb(94.984436%, 94.984436%, 94.984436%)" offset="0.25"/><stop stop-opacity="1" stop-color="rgb(94.677734%, 94.677734%, 94.677734%)" offset="0.261719"/><stop stop-opacity="1" stop-color="rgb(94.294739%, 94.294739%, 94.294739%)" offset="0.28125"/><stop stop-opacity="1" stop-color="rgb(93.911743%, 93.911743%, 93.911743%)" offset="0.300781"/><stop stop-opacity="1" stop-color="rgb(93.528748%, 93.528748%, 93.528748%)" offset="0.320312"/><stop stop-opacity="1" stop-color="rgb(93.145752%, 93.145752%, 93.145752%)" offset="0.339844"/><stop stop-opacity="1" stop-color="rgb(92.762756%, 92.762756%, 92.762756%)" offset="0.359375"/><stop stop-opacity="1" stop-color="rgb(92.419434%, 92.419434%, 92.419434%)" offset="0.378906"/><stop stop-opacity="1" stop-color="rgb(92.112732%, 92.112732%, 92.112732%)" offset="0.394531"/><stop stop-opacity="1" stop-color="rgb(91.80603%, 91.80603%, 91.80603%)" offset="0.410156"/><stop stop-opacity="1" stop-color="rgb(91.500854%, 91.500854%, 91.500854%)" offset="0.425781"/><stop stop-opacity="1" stop-color="rgb(91.156006%, 91.156006%, 91.156006%)" offset="0.441406"/><stop stop-opacity="1" stop-color="rgb(90.811157%, 90.811157%, 90.811157%)" offset="0.460938"/><stop stop-opacity="1" stop-color="rgb(90.466309%, 90.466309%, 90.466309%)" offset="0.476562"/><stop stop-opacity="1" stop-color="rgb(90.296936%, 90.34729%, 90.351868%)" offset="0.496094"/><stop stop-opacity="1" stop-color="rgb(90.377808%, 90.530396%, 90.544128%)" offset="0.511719"/><stop stop-opacity="1" stop-color="rgb(90.496826%, 90.750122%, 90.77301%)" offset="0.523438"/><stop stop-opacity="1" stop-color="rgb(90.617371%, 90.971375%, 91.003418%)" offset="0.535156"/><stop stop-opacity="1" stop-color="rgb(90.736389%, 91.191101%, 91.2323%)" offset="0.546875"/><stop stop-opacity="1" stop-color="rgb(90.855408%, 91.412354%, 91.462708%)" offset="0.558594"/><stop stop-opacity="1" stop-color="rgb(90.974426%, 91.63208%, 91.691589%)" offset="0.570312"/><stop stop-opacity="1" stop-color="rgb(91.093445%, 91.853333%, 91.921997%)" offset="0.582031"/><stop stop-opacity="1" stop-color="rgb(91.212463%, 92.073059%, 92.150879%)" offset="0.59375"/><stop stop-opacity="1" stop-color="rgb(91.333008%, 92.294312%, 92.381287%)" offset="0.605469"/><stop stop-opacity="1" stop-color="rgb(91.452026%, 92.514038%, 92.610168%)" offset="0.617188"/><stop stop-opacity="1" stop-color="rgb(91.610718%, 92.808533%, 92.91687%)" offset="0.628906"/><stop stop-opacity="1" stop-color="rgb(91.809082%, 93.17627%, 93.299866%)" offset="0.648438"/><stop stop-opacity="1" stop-color="rgb(92.008972%, 93.544006%, 93.682861%)" offset="0.667969"/><stop stop-opacity="1" stop-color="rgb(92.207336%, 93.911743%, 94.064331%)" offset="0.6875"/><stop stop-opacity="1" stop-color="rgb(92.385864%, 94.241333%, 94.40918%)" offset="0.707031"/><stop stop-opacity="1" stop-color="rgb(92.544556%, 94.535828%, 94.715881%)" offset="0.722656"/><stop stop-opacity="1" stop-color="rgb(92.704773%, 94.830322%, 95.022583%)" offset="0.738281"/><stop stop-opacity="1" stop-color="rgb(92.843628%, 95.088196%, 95.289612%)" offset="0.753906"/><stop stop-opacity="1" stop-color="rgb(92.962646%, 95.307922%, 95.52002%)" offset="0.765625"/><stop stop-opacity="1" stop-color="rgb(93.081665%, 95.529175%, 95.748901%)" offset="0.777344"/><stop stop-opacity="1" stop-color="rgb(93.200684%, 95.748901%, 95.979309%)" offset="0.789062"/><stop stop-opacity="1" stop-color="rgb(93.321228%, 95.970154%, 96.209717%)" offset="0.800781"/><stop stop-opacity="1" stop-color="rgb(93.440247%, 96.18988%, 96.438599%)" offset="0.8125"/><stop stop-opacity="1" stop-color="rgb(93.598938%, 96.484375%, 96.7453%)" offset="0.824219"/><stop stop-opacity="1" stop-color="rgb(93.797302%, 96.852112%, 97.12677%)" offset="0.84375"/><stop stop-opacity="1" stop-color="rgb(93.977356%, 97.183228%, 97.471619%)" offset="0.863281"/><stop stop-opacity="1" stop-color="rgb(94.116211%, 97.439575%, 97.740173%)" offset="0.878906"/><stop stop-opacity="1" stop-color="rgb(94.235229%, 97.660828%, 97.970581%)" offset="0.890625"/><stop stop-opacity="1" stop-color="rgb(94.354248%, 97.880554%, 98.199463%)" offset="0.902344"/><stop stop-opacity="1" stop-color="rgb(94.512939%, 98.175049%, 98.506165%)" offset="0.914062"/><stop stop-opacity="1" stop-color="rgb(94.692993%, 98.506165%, 98.851013%)" offset="0.933594"/><stop stop-opacity="1" stop-color="rgb(94.831848%, 98.764038%, 99.118042%)" offset="0.949219"/><stop stop-opacity="1" stop-color="rgb(94.99054%, 99.057007%, 99.424744%)" offset="0.960938"/><stop stop-opacity="1" stop-color="rgb(95.188904%, 99.424744%, 99.807739%)" offset="0.980469"/><stop stop-opacity="1" stop-color="rgb(95.289612%, 99.609375%, 100%)" offset="1"/></radialGradient><clipPath id="eab58b6a7c"><path d="M 122 155 L 156.5 155 L 156.5 249.378906 L 122 249.378906 Z M 122 155 " clip-rule="nonzero"/></clipPath><clipPath id="ac438cb15d"><path d="M 155 169 L 156.5 169 L 156.5 236 L 155 236 Z M 155 169 " clip-rule="nonzero"/></clipPath><clipPath id="28d67c5b79"><path d="M 61 3.378906 L 156.5 3.378906 L 156.5 122 L 61 122 Z M 61 3.378906 " clip-rule="nonzero"/></clipPath><clipPath id="a37b436ec3"><path d="M 0.5 58 L 96 58 L 96 166 L 0.5 166 Z M 0.5 58 " clip-rule="nonzero"/></clipPath><clipPath id="0e75387920"><path d="M 152.539062 155 L 179 155 L 179 249.378906 L 152.539062 249.378906 Z M 152.539062 155 " clip-rule="nonzero"/></clipPath><clipPath id="07e96dc1a8"><path d="M 152.539062 3.378906 L 240 3.378906 L 240 122 L 152.539062 122 Z M 152.539062 3.378906 " clip-rule="nonzero"/></clipPath><clipPath id="015d7b8868"><path d="M 205 58 L 300.5 58 L 300.5 166 L 205 166 Z M 205 58 " clip-rule="nonzero"/></clipPath><clipPath id="35f70bba9b"><rect x="0" width="301" y="0" height="253"/></clipPath></defs><rect x="-37.5" width="450" fill="#ffffff" y="-37.499999" height="449.999989" fill-opacity="1"/><rect x="-37.5" fill="url(#f07e4aa964)" width="450" y="-37.499999" height="449.999989"/><g transform="matrix(1, 0, 0, 1, 37, 70)"><g clip-path="url(#35f70bba9b)"><g clip-path="url(#eab58b6a7c)"><path fill="#7a305c" d="M 132.804688 205.84375 L 148.25 205.949219 C 149.316406 205.960938 150.324219 206.476562 150.945312 207.355469 C 151.566406 208.234375 151.71875 209.359375 151.378906 210.367188 L 145.25 228.132812 L 168.101562 198.695312 L 152.679688 198.589844 C 151.601562 198.589844 150.59375 198.0625 149.972656 197.183594 C 149.351562 196.304688 149.199219 195.179688 149.550781 194.171875 L 155.667969 176.394531 Z M 135.546875 249.414062 C 135.007812 249.414062 134.46875 249.285156 133.964844 249.015625 C 132.523438 248.242188 131.867188 246.542969 132.394531 244.996094 L 143.5625 212.582031 L 126.007812 212.464844 C 124.742188 212.453125 123.59375 211.726562 123.03125 210.589844 C 122.480469 209.441406 122.621094 208.082031 123.40625 207.085938 L 162.734375 156.414062 C 163.730469 155.125 165.523438 154.75 166.953125 155.523438 C 168.394531 156.308594 169.050781 158.007812 168.523438 159.542969 L 157.367188 191.957031 L 174.910156 192.074219 C 176.175781 192.085938 177.324219 192.8125 177.886719 193.949219 C 178.4375 195.097656 178.296875 196.457031 177.511719 197.453125 L 138.183594 248.125 C 137.527344 248.96875 136.542969 249.414062 135.546875 249.414062 " fill-opacity="1" fill-rule="nonzero"/></g><g clip-path="url(#ac438cb15d)"><path fill="#7a305c" d="M 245.164062 235.011719 L 158.878906 235.011719 C 157.039062 235.011719 155.550781 233.523438 155.550781 231.683594 C 155.550781 229.84375 157.039062 228.34375 158.878906 228.34375 L 244.34375 228.34375 L 244.34375 176.195312 L 181.765625 176.195312 C 179.925781 176.195312 178.4375 174.695312 178.4375 172.855469 C 178.4375 171.015625 179.925781 169.527344 181.765625 169.527344 L 245.164062 169.527344 C 248.386719 169.527344 251.011719 172.152344 251.011719 175.375 L 251.011719 229.164062 C 251.011719 232.386719 248.386719 235.011719 245.164062 235.011719 " fill-opacity="1" fill-rule="nonzero"/></g><path fill="#7a305c" d="M 120.394531 235.011719 L 55.753906 235.011719 C 52.53125 235.011719 49.90625 232.386719 49.90625 229.164062 L 49.90625 175.375 C 49.90625 172.152344 52.53125 169.527344 55.753906 169.527344 L 140.855469 169.527344 C 142.695312 169.527344 144.195312 171.015625 144.195312 172.855469 C 144.195312 174.695312 142.695312 176.195312 140.855469 176.195312 L 56.574219 176.195312 L 56.574219 228.34375 L 120.394531 228.34375 C 122.234375 228.34375 123.734375 229.84375 123.734375 231.683594 C 123.734375 233.523438 122.234375 235.011719 120.394531 235.011719 " fill-opacity="1" fill-rule="nonzero"/><path fill="#7a305c" d="M 106.132812 176.195312 C 104.292969 176.195312 102.792969 174.695312 102.792969 172.855469 L 102.792969 165.449219 L 80.585938 165.449219 L 80.585938 172.855469 C 80.585938 174.695312 79.085938 176.195312 77.246094 176.195312 C 75.40625 176.195312 73.917969 174.695312 73.917969 172.855469 L 73.917969 163.703125 C 73.917969 160.984375 76.121094 158.78125 78.828125 158.78125 L 104.550781 158.78125 C 107.257812 158.78125 109.460938 160.984375 109.460938 163.703125 L 109.460938 172.855469 C 109.460938 174.695312 107.972656 176.195312 106.132812 176.195312 " fill-opacity="1" fill-rule="nonzero"/><path fill="#7a305c" d="M 101.339844 63.144531 L 93.3125 63.144531 L 93.3125 71.628906 L 102.769531 71.628906 L 102.769531 74.136719 L 90.019531 74.136719 L 90.019531 50.476562 L 102.6875 50.476562 L 102.6875 53.007812 L 93.3125 53.007812 L 93.3125 60.625 L 101.339844 60.625 L 101.339844 63.144531 " fill-opacity="1" fill-rule="nonzero"/><path fill="#7a305c" d="M 126.640625 74.136719 L 123.324219 74.136719 L 114.160156 56.675781 L 114.054688 56.710938 L 114.054688 74.136719 L 110.761719 74.136719 L 110.761719 50.476562 L 114.054688 50.476562 L 123.230469 67.878906 L 123.324219 67.855469 L 123.324219 50.476562 L 126.640625 50.476562 L 126.640625 74.136719 " fill-opacity="1" fill-rule="nonzero"/><path fill="#7a305c" d="M 150.933594 71.042969 C 150.371094 71.945312 149.46875 72.742188 148.238281 73.433594 C 147.019531 74.125 145.425781 74.476562 143.492188 74.476562 C 141.019531 74.476562 139.027344 73.726562 137.515625 72.214844 C 136.003906 70.714844 135.253906 68.570312 135.253906 65.78125 L 135.253906 58.761719 C 135.253906 56.019531 135.980469 53.898438 137.445312 52.386719 C 138.910156 50.886719 140.84375 50.136719 143.28125 50.136719 C 145.671875 50.136719 147.523438 50.746094 148.824219 51.988281 C 150.113281 53.21875 150.746094 54.90625 150.710938 57.050781 L 150.675781 57.15625 L 147.570312 57.15625 C 147.570312 55.738281 147.207031 54.636719 146.480469 53.839844 C 145.765625 53.054688 144.722656 52.667969 143.339844 52.667969 C 141.863281 52.667969 140.691406 53.183594 139.835938 54.214844 C 138.992188 55.257812 138.570312 56.757812 138.570312 58.726562 L 138.570312 65.78125 C 138.570312 67.796875 139.003906 69.332031 139.894531 70.386719 C 140.773438 71.441406 141.96875 71.96875 143.492188 71.96875 C 144.605469 71.96875 145.496094 71.804688 146.164062 71.453125 C 146.832031 71.101562 147.3125 70.679688 147.617188 70.1875 L 147.617188 64.679688 L 143.257812 64.679688 L 143.257812 62.277344 L 150.933594 62.277344 L 150.933594 71.042969 " fill-opacity="1" fill-rule="nonzero"/><g clip-path="url(#28d67c5b79)"><path fill="#7a305c" d="M 90.5 10.011719 C 77.996094 10.011719 67.835938 20.171875 67.835938 32.664062 L 67.835938 91.9375 C 67.835938 104.429688 77.996094 114.601562 90.5 114.601562 L 210.417969 114.601562 C 222.910156 114.601562 233.082031 104.429688 233.082031 91.9375 L 233.082031 32.664062 C 233.082031 20.171875 222.910156 10.011719 210.417969 10.011719 Z M 210.417969 121.269531 L 90.5 121.269531 C 74.328125 121.269531 61.167969 108.109375 61.167969 91.9375 L 61.167969 32.664062 C 61.167969 16.492188 74.328125 3.34375 90.5 3.34375 L 210.417969 3.34375 C 226.589844 3.34375 239.75 16.492188 239.75 32.664062 L 239.75 91.9375 C 239.75 108.109375 226.589844 121.269531 210.417969 121.269531 " fill-opacity="1" fill-rule="nonzero"/></g><path fill="#7a305c" d="M 53.234375 104.980469 C 51.394531 104.980469 49.90625 103.480469 49.90625 101.640625 L 49.90625 22.960938 C 49.90625 21.121094 51.394531 19.632812 53.234375 19.632812 C 55.074219 19.632812 56.574219 21.121094 56.574219 22.960938 L 56.574219 101.640625 C 56.574219 103.480469 55.074219 104.980469 53.234375 104.980469 " fill-opacity="1" fill-rule="nonzero"/><path fill="#7a305c" d="M 53.234375 88.644531 L 34.308594 88.644531 L 34.308594 35.957031 L 53.234375 35.957031 C 55.074219 35.957031 56.574219 37.457031 56.574219 39.296875 C 56.574219 41.136719 55.074219 42.636719 53.234375 42.636719 L 40.976562 42.636719 L 40.976562 81.976562 L 53.234375 81.976562 C 55.074219 81.976562 56.574219 83.464844 56.574219 85.304688 C 56.574219 87.144531 55.074219 88.644531 53.234375 88.644531 " fill-opacity="1" fill-rule="nonzero"/><path fill="#7a305c" d="M 40.976562 74.734375 L 27.5 74.734375 C 25.660156 74.734375 24.171875 73.246094 24.171875 71.40625 C 24.171875 69.554688 25.660156 68.066406 27.5 68.066406 L 34.308594 68.066406 L 34.308594 56.535156 L 27.5 56.535156 C 25.660156 56.535156 24.171875 55.046875 24.171875 53.207031 C 24.171875 51.367188 25.660156 49.867188 27.5 49.867188 L 40.976562 49.867188 L 40.976562 74.734375 " fill-opacity="1" fill-rule="nonzero"/><g clip-path="url(#a37b436ec3)"><path fill="#7a305c" d="M 91.695312 165.449219 C 89.84375 165.449219 88.355469 163.960938 88.355469 162.121094 L 88.355469 156.683594 C 88.355469 149.839844 82.789062 144.273438 75.945312 144.273438 L 19.578125 144.273438 C 9.066406 144.273438 0.5 135.707031 0.5 125.183594 L 0.5 78.050781 C 0.5 67.527344 9.066406 58.972656 19.578125 58.972656 L 22.894531 58.972656 C 24.734375 58.972656 26.234375 60.460938 26.234375 62.300781 C 26.234375 64.140625 24.734375 65.640625 22.894531 65.640625 L 19.578125 65.640625 C 12.734375 65.640625 7.167969 71.207031 7.167969 78.050781 L 7.167969 125.183594 C 7.167969 132.027344 12.734375 137.605469 19.578125 137.605469 L 75.945312 137.605469 C 86.46875 137.605469 95.023438 146.160156 95.023438 156.683594 L 95.023438 162.121094 C 95.023438 163.960938 93.535156 165.449219 91.695312 165.449219 " fill-opacity="1" fill-rule="nonzero"/></g><g clip-path="url(#0e75387920)"><path fill="#09a6c1" d="M 132.804688 205.84375 L 148.25 205.949219 C 149.316406 205.960938 150.324219 206.476562 150.945312 207.355469 C 151.566406 208.234375 151.71875 209.359375 151.378906 210.367188 L 145.25 228.132812 L 168.101562 198.695312 L 152.679688 198.589844 C 151.601562 198.589844 150.59375 198.0625 149.972656 197.183594 C 149.351562 196.304688 149.199219 195.179688 149.550781 194.171875 L 155.667969 176.394531 Z M 135.546875 249.414062 C 135.007812 249.414062 134.46875 249.285156 133.964844 249.015625 C 132.523438 248.242188 131.867188 246.542969 132.394531 244.996094 L 143.5625 212.582031 L 126.007812 212.464844 C 124.742188 212.453125 123.59375 211.726562 123.03125 210.589844 C 122.480469 209.441406 122.621094 208.082031 123.40625 207.085938 L 162.734375 156.414062 C 163.730469 155.125 165.523438 154.75 166.953125 155.523438 C 168.394531 156.308594 169.050781 158.007812 168.523438 159.542969 L 157.367188 191.957031 L 174.910156 192.074219 C 176.175781 192.085938 177.324219 192.8125 177.886719 193.949219 C 178.4375 195.097656 178.296875 196.457031 177.511719 197.453125 L 138.183594 248.125 C 137.527344 248.96875 136.542969 249.414062 135.546875 249.414062 " fill-opacity="1" fill-rule="nonzero"/></g><path fill="#09a6c1" d="M 245.164062 235.011719 L 158.878906 235.011719 C 157.039062 235.011719 155.550781 233.523438 155.550781 231.683594 C 155.550781 229.84375 157.039062 228.34375 158.878906 228.34375 L 244.34375 228.34375 L 244.34375 176.195312 L 181.765625 176.195312 C 179.925781 176.195312 178.4375 174.695312 178.4375 172.855469 C 178.4375 171.015625 179.925781 169.527344 181.765625 169.527344 L 245.164062 169.527344 C 248.386719 169.527344 251.011719 172.152344 251.011719 175.375 L 251.011719 229.164062 C 251.011719 232.386719 248.386719 235.011719 245.164062 235.011719 " fill-opacity="1" fill-rule="nonzero"/><path fill="#09a6c1" d="M 223.671875 176.195312 C 221.832031 176.195312 220.332031 174.695312 220.332031 172.855469 L 220.332031 165.449219 L 198.125 165.449219 L 198.125 172.855469 C 198.125 174.695312 196.625 176.195312 194.785156 176.195312 C 192.945312 176.195312 191.457031 174.695312 191.457031 172.855469 L 191.457031 163.703125 C 191.457031 160.984375 193.660156 158.78125 196.367188 158.78125 L 222.089844 158.78125 C 224.796875 158.78125 227 160.984375 227 163.703125 L 227 172.855469 C 227 174.695312 225.511719 176.195312 223.671875 176.195312 " fill-opacity="1" fill-rule="nonzero"/><path fill="#09a6c1" d="M 163.566406 74.136719 L 160.273438 74.136719 L 160.273438 50.476562 L 163.566406 50.476562 L 163.566406 74.136719 " fill-opacity="1" fill-rule="nonzero"/><path fill="#09a6c1" d="M 188.949219 74.136719 L 185.644531 74.136719 L 176.46875 56.675781 L 176.375 56.710938 L 176.375 74.136719 L 173.070312 74.136719 L 173.070312 50.476562 L 176.375 50.476562 L 185.539062 67.878906 L 185.644531 67.855469 L 185.644531 50.476562 L 188.949219 50.476562 L 188.949219 74.136719 " fill-opacity="1" fill-rule="nonzero"/><path fill="#09a6c1" d="M 209.46875 63.144531 L 201.441406 63.144531 L 201.441406 71.628906 L 210.910156 71.628906 L 210.910156 74.136719 L 198.148438 74.136719 L 198.148438 50.476562 L 210.828125 50.476562 L 210.828125 53.007812 L 201.441406 53.007812 L 201.441406 60.625 L 209.46875 60.625 L 209.46875 63.144531 " fill-opacity="1" fill-rule="nonzero"/><g clip-path="url(#07e96dc1a8)"><path fill="#09a6c1" d="M 90.5 10.011719 C 77.996094 10.011719 67.835938 20.171875 67.835938 32.664062 L 67.835938 91.9375 C 67.835938 104.429688 77.996094 114.601562 90.5 114.601562 L 210.417969 114.601562 C 222.910156 114.601562 233.082031 104.429688 233.082031 91.9375 L 233.082031 32.664062 C 233.082031 20.171875 222.910156 10.011719 210.417969 10.011719 Z M 210.417969 121.269531 L 90.5 121.269531 C 74.328125 121.269531 61.167969 108.109375 61.167969 91.9375 L 61.167969 32.664062 C 61.167969 16.492188 74.328125 3.34375 90.5 3.34375 L 210.417969 3.34375 C 226.589844 3.34375 239.75 16.492188 239.75 32.664062 L 239.75 91.9375 C 239.75 108.109375 226.589844 121.269531 210.417969 121.269531 " fill-opacity="1" fill-rule="nonzero"/></g><path fill="#09a6c1" d="M 247.683594 104.980469 C 245.84375 104.980469 244.34375 103.480469 244.34375 101.640625 L 244.34375 22.960938 C 244.34375 21.121094 245.84375 19.632812 247.683594 19.632812 C 249.523438 19.632812 251.011719 21.121094 251.011719 22.960938 L 251.011719 101.640625 C 251.011719 103.480469 249.523438 104.980469 247.683594 104.980469 " fill-opacity="1" fill-rule="nonzero"/><path fill="#09a6c1" d="M 266.609375 88.644531 L 247.683594 88.644531 C 245.84375 88.644531 244.34375 87.144531 244.34375 85.304688 C 244.34375 83.464844 245.84375 81.976562 247.683594 81.976562 L 259.941406 81.976562 L 259.941406 42.636719 L 247.683594 42.636719 C 245.84375 42.636719 244.34375 41.136719 244.34375 39.296875 C 244.34375 37.457031 245.84375 35.957031 247.683594 35.957031 L 266.609375 35.957031 L 266.609375 88.644531 " fill-opacity="1" fill-rule="nonzero"/><path fill="#09a6c1" d="M 273.40625 74.734375 L 259.941406 74.734375 L 259.941406 49.867188 L 273.40625 49.867188 C 275.257812 49.867188 276.746094 51.367188 276.746094 53.207031 C 276.746094 55.046875 275.257812 56.535156 273.40625 56.535156 L 266.609375 56.535156 L 266.609375 68.066406 L 273.40625 68.066406 C 275.257812 68.066406 276.746094 69.554688 276.746094 71.40625 C 276.746094 73.246094 275.257812 74.734375 273.40625 74.734375 " fill-opacity="1" fill-rule="nonzero"/><g clip-path="url(#015d7b8868)"><path fill="#09a6c1" d="M 209.304688 165.449219 C 207.464844 165.449219 205.976562 163.960938 205.976562 162.121094 L 205.976562 156.683594 C 205.976562 146.160156 214.53125 137.605469 225.054688 137.605469 L 281.421875 137.605469 C 288.265625 137.605469 293.832031 132.027344 293.832031 125.183594 L 293.832031 78.050781 C 293.832031 71.207031 288.265625 65.640625 281.421875 65.640625 L 278.105469 65.640625 C 276.265625 65.640625 274.765625 64.140625 274.765625 62.300781 C 274.765625 60.460938 276.265625 58.972656 278.105469 58.972656 L 281.421875 58.972656 C 291.945312 58.972656 300.5 67.527344 300.5 78.050781 L 300.5 125.183594 C 300.5 135.707031 291.945312 144.273438 281.421875 144.273438 L 225.054688 144.273438 C 218.210938 144.273438 212.644531 149.839844 212.644531 156.683594 L 212.644531 162.121094 C 212.644531 163.960938 211.15625 165.449219 209.304688 165.449219 " fill-opacity="1" fill-rule="nonzero"/></g></g></g></svg>